<?xml version="1.0" encoding="UTF-8" standalone="no"?>
<svg
   xmlns:dc="http://purl.org/dc/elements/1.1/"
   xmlns:cc="http://creativecommons.org/ns#"
   xmlns:rdf="http://www.w3.org/1999/02/22-rdf-syntax-ns#"
   xmlns:svg="http://www.w3.org/2000/svg"
   xmlns="http://www.w3.org/2000/svg"
   xmlns:sodipodi="http://sodipodi.sourceforge.net/DTD/sodipodi-0.dtd"
   xmlns:inkscape="http://www.inkscape.org/namespaces/inkscape"
   version="1.1"
   width="24"
   height="24"
   viewBox="0 0 24 24"
   id="svg4"
   sodipodi:docname="clock.svg"
   inkscape:version="0.92.5 (2060ec1f9f, 2020-04-08)">
  <metadata
     id="metadata10">
    <rdf:RDF>
      <cc:Work
         rdf:about="">
        <dc:format>image/svg+xml</dc:format>
        <dc:type
           rdf:resource="http://purl.org/dc/dcmitype/StillImage" />
        <dc:title></dc:title>
      </cc:Work>
    </rdf:RDF>
  </metadata>
  <defs
     id="defs8" />
  <sodipodi:namedview
     pagecolor="#ffffff"
     bordercolor="#666666"
     borderopacity="1"
     objecttolerance="10"
     gridtolerance="10"
     guidetolerance="10"
     inkscape:pageopacity="0"
     inkscape:pageshadow="2"
     inkscape:window-width="1362"
     inkscape:window-height="740"
     id="namedview6"
     showgrid="false"
     inkscape:zoom="9.8333333"
     inkscape:cx="-7.8305085"
     inkscape:cy="12"
     inkscape:window-x="0"
     inkscape:window-y="24"
     inkscape:window-maximized="0"
     inkscape:current-layer="svg4" />
  <path
     d="m 12,19.755932 c 4.265763,0 7.755932,-3.490169 7.755932,-7.755932 0,-4.2657627 -3.490169,-7.7559322 -7.755932,-7.7559322 -4.2657627,0 -7.7559322,3.4901695 -7.7559322,7.7559322 0,4.265763 3.4901695,7.755932 7.7559322,7.755932 M 12,2.3050847 c 5.332204,0 9.694915,4.362712 9.694915,9.6949153 0,5.332204 -4.362711,9.694915 -9.694915,9.694915 C 6.6677967,21.694915 2.3050847,17.332204 2.3050847,12 2.3050847,6.6677967 6.6677967,2.3050847 12,2.3050847 m 0.484746,4.8474577 V 12.969491 H 7.1525424 V 11.515254 H 11.030509 V 7.1525424 Z"
     id="path2"
     style="fill:#ffffff;fill-opacity:1;stroke-width:0.96949154"
     inkscape:connector-curvature="0" />
</svg>
