<?xml version="1.0" encoding="UTF-8" standalone="no"?>
<svg
   xmlns:dc="http://purl.org/dc/elements/1.1/"
   xmlns:cc="http://creativecommons.org/ns#"
   xmlns:rdf="http://www.w3.org/1999/02/22-rdf-syntax-ns#"
   xmlns:svg="http://www.w3.org/2000/svg"
   xmlns="http://www.w3.org/2000/svg"
   xmlns:sodipodi="http://sodipodi.sourceforge.net/DTD/sodipodi-0.dtd"
   xmlns:inkscape="http://www.inkscape.org/namespaces/inkscape"
   aria-hidden="true"
   focusable="false"
   data-prefix="fas"
   data-icon="memory"
   class="svg-inline--fa fa-memory fa-w-20"
   role="img"
   viewBox="0 0 640 512"
   version="1.1"
   id="svg4"
   sodipodi:docname="memory.svg"
   inkscape:version="0.92.5 (2060ec1f9f, 2020-04-08)">
  <metadata
     id="metadata10">
    <rdf:RDF>
      <cc:Work
         rdf:about="">
        <dc:format>image/svg+xml</dc:format>
        <dc:type
           rdf:resource="http://purl.org/dc/dcmitype/StillImage" />
        <dc:title></dc:title>
      </cc:Work>
    </rdf:RDF>
  </metadata>
  <defs
     id="defs8" />
  <sodipodi:namedview
     pagecolor="#ffffff"
     bordercolor="#666666"
     borderopacity="1"
     objecttolerance="10"
     gridtolerance="10"
     guidetolerance="10"
     inkscape:pageopacity="0"
     inkscape:pageshadow="2"
     inkscape:window-width="1362"
     inkscape:window-height="740"
     id="namedview6"
     showgrid="false"
     inkscape:zoom="0.4609375"
     inkscape:cx="320"
     inkscape:cy="256"
     inkscape:window-x="0"
     inkscape:window-y="24"
     inkscape:window-maximized="0"
     inkscape:current-layer="svg4" />
  <path
     d="M 640,130.94 V 96 C 640,78.33 625.67,64 608,64 H 32 C 14.33,64 0,78.33 0,96 v 34.94 c 18.6,6.61 32,24.19 32,45.06 0,20.87 -13.4,38.45 -32,45.06 V 320 h 640 v -98.94 c -18.6,-6.61 -32,-24.19 -32,-45.06 0,-20.87 13.4,-38.45 32,-45.06 z M 224,256 H 160 V 128 h 64 z m 128,0 H 288 V 128 h 64 z m 128,0 H 416 V 128 h 64 z M 0,448 h 64 v -26.67 c 0,-8.84 7.16,-16 16,-16 8.84,0 16,7.16 16,16 V 448 h 128 v -26.67 c 0,-8.84 7.16,-16 16,-16 8.84,0 16,7.16 16,16 V 448 h 128 v -26.67 c 0,-8.84 7.16,-16 16,-16 8.84,0 16,7.16 16,16 V 448 h 128 v -26.67 c 0,-8.84 7.16,-16 16,-16 8.84,0 16,7.16 16,16 V 448 h 64 V 352 H 0 Z"
     id="path2"
     inkscape:connector-curvature="0"
     style="fill:#ffffff" />
</svg>
